<svg width="86" height="50" viewBox="0 0 86 50" fill="none" xmlns="http://www.w3.org/2000/svg">
<path d="M21.1513 16.095L19.9333 26H19.3243L20.3673 17.537C20.3813 17.4203 20.4023 17.2967 20.4303 17.166L16.0203 24.096C15.9457 24.2127 15.85 24.271 15.7333 24.271H15.6213C15.4953 24.271 15.4137 24.2127 15.3763 24.096L12.5623 17.145C12.5623 17.285 12.5553 17.4133 12.5413 17.53L11.5053 26H10.8963L12.1143 16.095H12.5903C12.6557 16.095 12.7047 16.1043 12.7373 16.123C12.77 16.137 12.805 16.172 12.8423 16.228L15.6703 23.2C15.689 23.2513 15.7053 23.305 15.7193 23.361C15.7333 23.4123 15.7473 23.466 15.7613 23.522C15.808 23.4193 15.864 23.312 15.9293 23.2L20.3953 16.228C20.442 16.172 20.4817 16.137 20.5143 16.123C20.5517 16.1043 20.603 16.095 20.6683 16.095H21.1513ZM27.1387 19.581C26.9987 19.5297 26.8541 19.4947 26.7047 19.476C26.5554 19.4527 26.4037 19.441 26.2497 19.441C25.7831 19.441 25.3374 19.5553 24.9127 19.784C24.4881 20.0127 24.1147 20.3183 23.7927 20.701C23.4707 21.0837 23.2141 21.5223 23.0227 22.017C22.8314 22.5117 22.7357 23.025 22.7357 23.557C22.7357 24.1823 22.8407 24.67 23.0507 25.02C23.2654 25.3653 23.5967 25.538 24.0447 25.538C24.3107 25.538 24.5721 25.4633 24.8287 25.314C25.0854 25.1647 25.3304 24.9547 25.5637 24.684C25.8017 24.4133 26.0234 24.089 26.2287 23.711C26.4341 23.3283 26.6184 22.906 26.7817 22.444L27.1387 19.581ZM26.6837 23.578C26.5064 23.9513 26.3104 24.2943 26.0957 24.607C25.8857 24.915 25.6594 25.1787 25.4167 25.398C25.1741 25.6173 24.9197 25.7877 24.6537 25.909C24.3877 26.0303 24.1124 26.091 23.8277 26.091C23.5384 26.091 23.2817 26.035 23.0577 25.923C22.8384 25.8063 22.6541 25.643 22.5047 25.433C22.3601 25.223 22.2504 24.9687 22.1757 24.67C22.1011 24.3713 22.0637 24.0353 22.0637 23.662C22.0637 23.256 22.1151 22.8593 22.2177 22.472C22.3251 22.08 22.4721 21.709 22.6587 21.359C22.8454 21.009 23.0694 20.687 23.3307 20.393C23.5921 20.099 23.8814 19.8447 24.1987 19.63C24.5161 19.4153 24.8544 19.2473 25.2137 19.126C25.5731 19.0047 25.9441 18.944 26.3267 18.944C26.6021 18.944 26.8611 18.9697 27.1037 19.021C27.3511 19.0677 27.5914 19.1517 27.8247 19.273L27.0057 26H26.6837C26.5904 26 26.5274 25.9743 26.4947 25.923C26.4621 25.8717 26.4457 25.8133 26.4457 25.748L26.6837 23.578ZM30.3804 21.128C30.567 20.7827 30.7724 20.4747 30.9964 20.204C31.225 19.9287 31.463 19.6977 31.7104 19.511C31.9624 19.3197 32.219 19.175 32.4804 19.077C32.7464 18.979 33.01 18.93 33.2714 18.93C33.5747 18.93 33.8337 18.9883 34.0484 19.105C34.263 19.2217 34.4334 19.392 34.5594 19.616C34.6854 19.84 34.767 20.1153 34.8044 20.442C34.8464 20.764 34.8417 21.1327 34.7904 21.548L34.2654 26H33.6074L34.1324 21.548C34.2117 20.8853 34.1674 20.3767 33.9994 20.022C33.8314 19.6627 33.5164 19.483 33.0544 19.483C32.8024 19.483 32.5457 19.5483 32.2844 19.679C32.023 19.805 31.7687 19.987 31.5214 20.225C31.2787 20.463 31.0477 20.7523 30.8284 21.093C30.609 21.429 30.4154 21.807 30.2474 22.227L29.7924 26H29.1344L30.3664 15.815H31.0244L30.3804 21.128ZM37.9281 19.035L37.0811 26H36.4301L37.2771 19.035H37.9281ZM38.4391 16.634C38.4391 16.718 38.4205 16.7973 38.3831 16.872C38.3505 16.942 38.3061 17.005 38.2501 17.061C38.1941 17.117 38.1288 17.1613 38.0541 17.194C37.9841 17.2267 37.9118 17.243 37.8371 17.243C37.7578 17.243 37.6831 17.2267 37.6131 17.194C37.5431 17.1613 37.4825 17.117 37.4311 17.061C37.3798 17.005 37.3378 16.942 37.3051 16.872C37.2725 16.7973 37.2561 16.718 37.2561 16.634C37.2561 16.55 37.2725 16.4707 37.3051 16.396C37.3378 16.3213 37.3798 16.256 37.4311 16.2C37.4871 16.1393 37.5501 16.0927 37.6201 16.06C37.6901 16.0273 37.7648 16.011 37.8441 16.011C37.9188 16.011 37.9911 16.0273 38.0611 16.06C38.1358 16.0927 38.2011 16.137 38.2571 16.193C38.3131 16.249 38.3575 16.3167 38.3901 16.396C38.4228 16.4707 38.4391 16.55 38.4391 16.634ZM40.5099 21.275C40.6966 20.9063 40.9043 20.5773 41.1329 20.288C41.3663 19.994 41.6113 19.7467 41.8679 19.546C42.1246 19.3453 42.3883 19.1937 42.6589 19.091C42.9296 18.9837 43.2026 18.93 43.4779 18.93C43.7766 18.93 44.0309 18.9883 44.2409 19.105C44.4556 19.2217 44.6259 19.392 44.7519 19.616C44.8826 19.84 44.9666 20.1153 45.0039 20.442C45.0459 20.764 45.0413 21.1327 44.9899 21.548L44.4649 26H43.8069L44.3319 21.548C44.4113 20.8853 44.3669 20.3767 44.1989 20.022C44.0309 19.6673 43.7159 19.49 43.2539 19.49C42.9926 19.49 42.7289 19.5577 42.4629 19.693C42.2016 19.8237 41.9449 20.0127 41.6929 20.26C41.4456 20.5027 41.2123 20.799 40.9929 21.149C40.7736 21.4943 40.5799 21.884 40.4119 22.318L39.9849 26H39.3269L40.1599 19.014H40.4609C40.6243 19.014 40.7059 19.098 40.7059 19.266L40.5099 21.275Z" fill="url(#paint0_radial_203_23)"/>
<path d="M46.9631 30.919L46.4521 35H45.7591L46.2701 30.912L43.6031 25.095H44.2191C44.3404 25.095 44.4198 25.1533 44.4571 25.27L46.5501 29.946C46.5781 30.0253 46.6038 30.1047 46.6271 30.184C46.6504 30.2587 46.6691 30.3357 46.6831 30.415C46.7204 30.3357 46.7601 30.2587 46.8021 30.184C46.8441 30.1047 46.8908 30.0253 46.9421 29.946L50.1901 25.27C50.2228 25.2187 50.2601 25.1767 50.3021 25.144C50.3441 25.1113 50.3978 25.095 50.4631 25.095H51.0441L46.9631 30.919ZM54.4015 28.581C54.2615 28.5297 54.1168 28.4947 53.9675 28.476C53.8181 28.4527 53.6665 28.441 53.5125 28.441C53.0458 28.441 52.6001 28.5553 52.1755 28.784C51.7508 29.0127 51.3775 29.3183 51.0555 29.701C50.7335 30.0837 50.4768 30.5223 50.2855 31.017C50.0941 31.5117 49.9985 32.025 49.9985 32.557C49.9985 33.1823 50.1035 33.67 50.3135 34.02C50.5281 34.3653 50.8595 34.538 51.3075 34.538C51.5735 34.538 51.8348 34.4633 52.0915 34.314C52.3481 34.1647 52.5931 33.9547 52.8265 33.684C53.0645 33.4133 53.2861 33.089 53.4915 32.711C53.6968 32.3283 53.8811 31.906 54.0445 31.444L54.4015 28.581ZM53.9465 32.578C53.7691 32.9513 53.5731 33.2943 53.3585 33.607C53.1485 33.915 52.9221 34.1787 52.6795 34.398C52.4368 34.6173 52.1825 34.7877 51.9165 34.909C51.6505 35.0303 51.3751 35.091 51.0905 35.091C50.8011 35.091 50.5445 35.035 50.3205 34.923C50.1011 34.8063 49.9168 34.643 49.7675 34.433C49.6228 34.223 49.5131 33.9687 49.4385 33.67C49.3638 33.3713 49.3265 33.0353 49.3265 32.662C49.3265 32.256 49.3778 31.8593 49.4805 31.472C49.5878 31.08 49.7348 30.709 49.9215 30.359C50.1081 30.009 50.3321 29.687 50.5935 29.393C50.8548 29.099 51.1441 28.8447 51.4615 28.63C51.7788 28.4153 52.1171 28.2473 52.4765 28.126C52.8358 28.0047 53.2068 27.944 53.5895 27.944C53.8648 27.944 54.1238 27.9697 54.3665 28.021C54.6138 28.0677 54.8541 28.1517 55.0875 28.273L54.2685 35H53.9465C53.8531 35 53.7901 34.9743 53.7575 34.923C53.7248 34.8717 53.7085 34.8133 53.7085 34.748L53.9465 32.578ZM51.9235 25.781H55.4375L55.3815 26.236H51.8745L51.9235 25.781ZM61.3531 29.449C61.2505 29.267 61.1338 29.113 61.0031 28.987C60.8771 28.8563 60.7418 28.7537 60.5971 28.679C60.4525 28.5997 60.3008 28.5437 60.1421 28.511C59.9835 28.4737 59.8248 28.455 59.6661 28.455C59.3721 28.455 59.0968 28.5157 58.8401 28.637C58.5881 28.7537 58.3571 28.9147 58.1471 29.12C57.9418 29.3253 57.7575 29.5633 57.5941 29.834C57.4355 30.1047 57.3001 30.3917 57.1881 30.695C57.0808 30.9983 56.9968 31.311 56.9361 31.633C56.8801 31.955 56.8521 32.2653 56.8521 32.564C56.8521 33.1893 56.9711 33.677 57.2091 34.027C57.4471 34.377 57.7948 34.552 58.2521 34.552C58.5181 34.552 58.7841 34.4773 59.0501 34.328C59.3161 34.1787 59.5728 33.9687 59.8201 33.698C60.0721 33.4273 60.3055 33.103 60.5201 32.725C60.7395 32.3423 60.9331 31.92 61.1011 31.458L61.3531 29.449ZM62.5711 24.815L61.3251 35H61.0031C60.9098 35 60.8468 34.9743 60.8141 34.923C60.7815 34.8717 60.7651 34.8133 60.7651 34.748L60.9961 32.557C60.8141 32.935 60.6088 33.2803 60.3801 33.593C60.1561 33.901 59.9181 34.167 59.6661 34.391C59.4141 34.615 59.1505 34.7877 58.8751 34.909C58.5998 35.0303 58.3198 35.091 58.0351 35.091C57.7318 35.091 57.4658 35.0327 57.2371 34.916C57.0085 34.7993 56.8171 34.6337 56.6631 34.419C56.5091 34.2043 56.3925 33.9453 56.3131 33.642C56.2338 33.3387 56.1941 32.998 56.1941 32.62C56.1941 32.2653 56.2315 31.9037 56.3061 31.535C56.3808 31.1617 56.4858 30.8023 56.6211 30.457C56.7611 30.107 56.9291 29.7803 57.1251 29.477C57.3258 29.169 57.5521 28.9007 57.8041 28.672C58.0561 28.4433 58.3315 28.2637 58.6301 28.133C58.9288 27.9977 59.2485 27.93 59.5891 27.93C59.9671 27.93 60.3148 28.014 60.6321 28.182C60.9541 28.3453 61.2155 28.5903 61.4161 28.917L61.9271 24.815H62.5711ZM66.7799 28.427C66.4065 28.427 66.0682 28.5063 65.7649 28.665C65.4662 28.819 65.2002 29.029 64.9669 29.295C64.7382 29.561 64.5445 29.869 64.3859 30.219C64.2319 30.5643 64.1175 30.926 64.0429 31.304C64.6355 31.2387 65.1465 31.164 65.5759 31.08C66.0052 30.9913 66.3692 30.9003 66.6679 30.807C66.9665 30.709 67.2092 30.604 67.3959 30.492C67.5825 30.38 67.7249 30.2657 67.8229 30.149C67.9255 30.0277 67.9932 29.904 68.0259 29.778C68.0632 29.652 68.0819 29.5213 68.0819 29.386C68.0819 29.288 68.0585 29.183 68.0119 29.071C67.9699 28.9543 67.8975 28.8493 67.7949 28.756C67.6922 28.6627 67.5569 28.5857 67.3889 28.525C67.2255 28.4597 67.0225 28.427 66.7799 28.427ZM68.4949 33.705C68.2662 33.9477 68.0422 34.1577 67.8229 34.335C67.6082 34.5077 67.3889 34.65 67.1649 34.762C66.9455 34.874 66.7169 34.9557 66.4789 35.007C66.2409 35.063 65.9865 35.091 65.7159 35.091C65.3285 35.091 64.9832 35.028 64.6799 34.902C64.3812 34.7713 64.1292 34.5893 63.9239 34.356C63.7185 34.118 63.5622 33.831 63.4549 33.495C63.3475 33.1543 63.2939 32.774 63.2939 32.354C63.2939 32.004 63.3289 31.6517 63.3989 31.297C63.4689 30.9423 63.5715 30.6017 63.7069 30.275C63.8469 29.9483 64.0172 29.6427 64.2179 29.358C64.4232 29.0733 64.6565 28.826 64.9179 28.616C65.1792 28.406 65.4685 28.2403 65.7859 28.119C66.1032 27.9977 66.4462 27.937 66.8149 27.937C67.1555 27.937 67.4425 27.986 67.6759 28.084C67.9139 28.1773 68.1052 28.2963 68.2499 28.441C68.3992 28.581 68.5065 28.735 68.5719 28.903C68.6372 29.0663 68.6699 29.2203 68.6699 29.365C68.6699 29.5563 68.6442 29.7383 68.5929 29.911C68.5415 30.0837 68.4505 30.247 68.3199 30.401C68.1892 30.555 68.0119 30.6997 67.7879 30.835C67.5639 30.9703 67.2769 31.0963 66.9269 31.213C66.5815 31.325 66.1662 31.4277 65.6809 31.521C65.1955 31.6143 64.6262 31.696 63.9729 31.766C63.9635 31.8593 63.9542 31.955 63.9449 32.053C63.9402 32.151 63.9379 32.2467 63.9379 32.34C63.9379 33.0353 64.0942 33.579 64.4069 33.971C64.7242 34.363 65.2002 34.559 65.8349 34.559C66.0822 34.559 66.3039 34.5333 66.4999 34.482C66.7005 34.426 66.8779 34.356 67.0319 34.272C67.1905 34.188 67.3282 34.0993 67.4449 34.006C67.5662 33.9127 67.6735 33.824 67.7669 33.74C67.8602 33.656 67.9395 33.5883 68.0049 33.537C68.0749 33.481 68.1379 33.453 68.1939 33.453C68.2499 33.453 68.2989 33.4763 68.3409 33.523L68.4949 33.705ZM71.3334 28.035L70.4864 35H69.8354L70.6824 28.035H71.3334ZM71.8444 25.634C71.8444 25.718 71.8257 25.7973 71.7884 25.872C71.7557 25.942 71.7114 26.005 71.6554 26.061C71.5994 26.117 71.534 26.1613 71.4594 26.194C71.3894 26.2267 71.317 26.243 71.2424 26.243C71.163 26.243 71.0884 26.2267 71.0184 26.194C70.9484 26.1613 70.8877 26.117 70.8364 26.061C70.785 26.005 70.743 25.942 70.7104 25.872C70.6777 25.7973 70.6614 25.718 70.6614 25.634C70.6614 25.55 70.6777 25.4707 70.7104 25.396C70.743 25.3213 70.785 25.256 70.8364 25.2C70.8924 25.1393 70.9554 25.0927 71.0254 25.06C71.0954 25.0273 71.17 25.011 71.2494 25.011C71.324 25.011 71.3964 25.0273 71.4664 25.06C71.541 25.0927 71.6064 25.137 71.6624 25.193C71.7184 25.249 71.7627 25.3167 71.7954 25.396C71.828 25.4707 71.8444 25.55 71.8444 25.634ZM73.7752 30.275C73.9618 29.9063 74.1695 29.5773 74.3982 29.288C74.6315 28.994 74.8765 28.7467 75.1332 28.546C75.3898 28.3453 75.6535 28.1937 75.9242 28.091C76.1948 27.9837 76.4678 27.93 76.7432 27.93C77.0418 27.93 77.2962 27.9883 77.5062 28.105C77.7208 28.2217 77.8912 28.392 78.0172 28.616C78.1478 28.84 78.2318 29.1153 78.2692 29.442C78.3112 29.764 78.3065 30.1327 78.2552 30.548L77.7302 35H77.0722L77.5972 30.548C77.6765 29.8853 77.6322 29.3767 77.4642 29.022C77.2962 28.6673 76.9812 28.49 76.5192 28.49C76.2578 28.49 75.9942 28.5577 75.7282 28.693C75.4668 28.8237 75.2102 29.0127 74.9582 29.26C74.7108 29.5027 74.4775 29.799 74.2582 30.149C74.0388 30.4943 73.8452 30.884 73.6772 31.318L73.2502 35H72.5922L73.4252 28.014H73.7262C73.8895 28.014 73.9712 28.098 73.9712 28.266L73.7752 30.275Z" fill="url(#paint1_radial_203_23)"/>
<defs>
<radialGradient id="paint0_radial_203_23" cx="0" cy="0" r="1" gradientUnits="userSpaceOnUse" gradientTransform="translate(28 21) rotate(90) scale(11 18)">
<stop offset="0.269237" stop-color="#0F4C81"/>
<stop offset="0.649066" stop-color="#F59E0B"/>
</radialGradient>
<radialGradient id="paint1_radial_203_23" cx="0" cy="0" r="1" gradientUnits="userSpaceOnUse" gradientTransform="translate(61 30) rotate(90) scale(10 18.5)">
<stop offset="0.269237" stop-color="#0F4C81"/>
<stop offset="0.649066" stop-color="#F59E0B"/>
</radialGradient>
</defs>
</svg>
